<svg width="77" height="21" viewBox="0 0 77 21" fill="none" xmlns="http://www.w3.org/2000/svg">
<g clip-path="url(#clip0_1_61)">
<g clip-path="url(#clip1_1_61)">
<rect x="0.109985" y="0.160034" width="75.69" height="20" rx="10" fill="black"/>
<g clip-path="url(#clip2_1_61)">
<g clip-path="url(#clip3_1_61)">
<path d="M19.9712 9.35604L23.7941 4.91003H22.8881L19.5688 8.77045L16.9177 4.91003H13.86L17.869 10.7477L13.86 15.41H14.7659L18.2712 11.3333L21.0709 15.41H24.1287L19.9712 9.35604ZM18.7305 10.7991L18.3243 10.2178L15.0923 5.59236H16.4838L19.092 9.32524L19.4982 9.90655L22.8886 14.7587H21.4972L18.7305 10.7991Z" fill="white"/>
</g>
</g>
<path d="M30.0089 14.16V5.97822H35.0826V7.04089H31.2433V9.53379H34.719V10.5925H31.2433V14.16H30.0089ZM38.6391 14.2839C38.0638 14.2839 37.5618 14.152 37.133 13.8884C36.7042 13.6247 36.3713 13.2558 36.1342 12.7817C35.8972 12.3077 35.7787 11.7537 35.7787 11.1198C35.7787 10.4833 35.8972 9.92664 36.1342 9.4499C36.3713 8.97316 36.7042 8.60295 37.133 8.33928C37.5618 8.07561 38.0638 7.94377 38.6391 7.94377C39.2144 7.94377 39.7165 8.07561 40.1453 8.33928C40.5741 8.60295 40.907 8.97316 41.144 9.4499C41.381 9.92664 41.4996 10.4833 41.4996 11.1198C41.4996 11.7537 41.381 12.3077 41.144 12.7817C40.907 13.2558 40.5741 13.6247 40.1453 13.8884C39.7165 14.152 39.2144 14.2839 38.6391 14.2839ZM38.6431 13.2811C39.016 13.2811 39.3249 13.1826 39.57 12.9855C39.815 12.7884 39.9961 12.5261 40.1133 12.1985C40.2331 11.8709 40.2931 11.51 40.2931 11.1158C40.2931 10.7243 40.2331 10.3648 40.1133 10.0372C39.9961 9.70691 39.815 9.44191 39.57 9.24215C39.3249 9.0424 39.016 8.94253 38.6431 8.94253C38.2676 8.94253 37.956 9.0424 37.7083 9.24215C37.4633 9.44191 37.2808 9.70691 37.161 10.0372C37.0438 10.3648 36.9852 10.7243 36.9852 11.1158C36.9852 11.51 37.0438 11.8709 37.161 12.1985C37.2808 12.5261 37.4633 12.7884 37.7083 12.9855C37.956 13.1826 38.2676 13.2811 38.6431 13.2811ZM44.0274 5.97822V14.16H42.8329V5.97822H44.0274ZM46.8289 5.97822V14.16H45.6344V5.97822H46.8289ZM51.0207 14.2839C50.4454 14.2839 49.9434 14.152 49.5146 13.8884C49.0858 13.6247 48.7529 13.2558 48.5158 12.7817C48.2788 12.3077 48.1603 11.7537 48.1603 11.1198C48.1603 10.4833 48.2788 9.92664 48.5158 9.4499C48.7529 8.97316 49.0858 8.60295 49.5146 8.33928C49.9434 8.07561 50.4454 7.94377 51.0207 7.94377C51.596 7.94377 52.098 8.07561 52.5268 8.33928C52.9556 8.60295 53.2886 8.97316 53.5256 9.4499C53.7626 9.92664 53.8812 10.4833 53.8812 11.1198C53.8812 11.7537 53.7626 12.3077 53.5256 12.7817C53.2886 13.2558 52.9556 13.6247 52.5268 13.8884C52.098 14.152 51.596 14.2839 51.0207 14.2839ZM51.0247 13.2811C51.3976 13.2811 51.7065 13.1826 51.9516 12.9855C52.1966 12.7884 52.3777 12.5261 52.4949 12.1985C52.6147 11.8709 52.6747 11.51 52.6747 11.1158C52.6747 10.7243 52.6147 10.3648 52.4949 10.0372C52.3777 9.70691 52.1966 9.44191 51.9516 9.24215C51.7065 9.0424 51.3976 8.94253 51.0247 8.94253C50.6492 8.94253 50.3376 9.0424 50.0899 9.24215C49.8448 9.44191 49.6624 9.70691 49.5426 10.0372C49.4254 10.3648 49.3668 10.7243 49.3668 11.1158C49.3668 11.51 49.4254 11.8709 49.5426 12.1985C49.6624 12.5261 49.8448 12.7884 50.0899 12.9855C50.3376 13.1826 50.6492 13.2811 51.0247 13.2811ZM56.3581 14.16L54.5523 8.02367H55.7868L56.9893 12.5301H57.0492L58.2557 8.02367H59.4902L60.6887 12.5101H60.7486L61.9431 8.02367H63.1776L61.3758 14.16H60.1573L58.9109 9.72955H58.819L57.5726 14.16H56.3581Z" fill="white"/>
</g>
</g>
<defs>
<clipPath id="clip0_1_61">
<rect width="76" height="20" fill="white" transform="translate(0.109985 0.160034)"/>
</clipPath>
<clipPath id="clip1_1_61">
<rect width="75.69" height="20" fill="white" transform="translate(0.109985 0.160034)"/>
</clipPath>
<clipPath id="clip2_1_61">
<rect width="14" height="14" fill="white" transform="translate(12.11 3.16003)"/>
</clipPath>
<clipPath id="clip3_1_61">
<rect width="14" height="14" fill="white" transform="translate(12.11 3.16003)"/>
</clipPath>
</defs>
</svg>
