<svg width="65" height="21" viewBox="0 0 65 21" fill="none" xmlns="http://www.w3.org/2000/svg">
<g clip-path="url(#clip0_1_4)">
<g clip-path="url(#clip1_1_4)">
<rect y="0.5" width="65.02" height="20" rx="10" fill="black"/>
<g clip-path="url(#clip2_1_4)">
<g clip-path="url(#clip3_1_4)">
<path d="M19.8613 9.69601L23.6841 5.25H22.7782L19.4588 9.11041L16.8077 5.25H13.75L17.759 11.0877L13.75 15.75H14.6559L18.1612 11.6732L20.961 15.75H24.0187L19.8613 9.69601ZM18.6205 11.1391L18.2143 10.5577L14.9823 5.93233H16.3738L18.982 9.66521L19.3882 10.2465L22.7786 15.0987H21.3872L18.6205 11.1391Z" fill="white"/>
</g>
</g>
<path d="M29.8989 14.5V6.31818H32.8153C33.4518 6.31818 33.9791 6.43404 34.3973 6.66575C34.8154 6.89746 35.1284 7.2144 35.3361 7.61657C35.5439 8.01607 35.6477 8.46618 35.6477 8.96689C35.6477 9.47026 35.5425 9.92303 35.3321 10.3252C35.1244 10.7247 34.8101 11.0416 34.3893 11.276C33.9711 11.5077 33.4451 11.6236 32.8113 11.6236H30.8058V10.5769H32.6994C33.1016 10.5769 33.4278 10.5076 33.6782 10.3691C33.9285 10.228 34.1123 10.0362 34.2295 9.79386C34.3467 9.55149 34.4053 9.27583 34.4053 8.96689C34.4053 8.65794 34.3467 8.38361 34.2295 8.14391C34.1123 7.90421 33.9272 7.71644 33.6742 7.58061C33.4238 7.44478 33.0936 7.37686 32.6834 7.37686H31.1333V14.5H29.8989ZM39.5069 14.6238C38.9316 14.6238 38.4296 14.492 38.0008 14.2283C37.572 13.9647 37.2391 13.5958 37.002 13.1217C36.765 12.6476 36.6465 12.0937 36.6465 11.4598C36.6465 10.8232 36.765 10.2666 37.002 9.78986C37.2391 9.31312 37.572 8.94292 38.0008 8.67924C38.4296 8.41557 38.9316 8.28374 39.5069 8.28374C40.0822 8.28374 40.5843 8.41557 41.0131 8.67924C41.4419 8.94292 41.7748 9.31312 42.0118 9.78986C42.2488 10.2666 42.3674 10.8232 42.3674 11.4598C42.3674 12.0937 42.2488 12.6476 42.0118 13.1217C41.7748 13.5958 41.4419 13.9647 41.0131 14.2283C40.5843 14.492 40.0822 14.6238 39.5069 14.6238ZM39.5109 13.6211C39.8838 13.6211 40.1927 13.5225 40.4378 13.3255C40.6828 13.1284 40.8639 12.866 40.9811 12.5384C41.1009 12.2108 41.1609 11.85 41.1609 11.4558C41.1609 11.0643 41.1009 10.7047 40.9811 10.3771C40.8639 10.0469 40.6828 9.78187 40.4378 9.58212C40.1927 9.38237 39.8838 9.28249 39.5109 9.28249C39.1354 9.28249 38.8238 9.38237 38.5761 9.58212C38.3311 9.78187 38.1486 10.0469 38.0288 10.3771C37.9116 10.7047 37.853 11.0643 37.853 11.4558C37.853 11.85 37.9116 12.2108 38.0288 12.5384C38.1486 12.866 38.3311 13.1284 38.5761 13.3255C38.8238 13.5225 39.1354 13.6211 39.5109 13.6211ZM48.299 9.86177L47.2163 10.0535C47.1711 9.91504 47.0991 9.7832 47.0006 9.65803C46.9047 9.53285 46.7742 9.43031 46.6091 9.35041C46.444 9.27051 46.2375 9.23056 45.9899 9.23056C45.6516 9.23056 45.3693 9.30646 45.1429 9.45827C44.9165 9.60742 44.8033 9.80051 44.8033 10.0376C44.8033 10.2426 44.8792 10.4078 45.0311 10.5329C45.1829 10.6581 45.4279 10.7607 45.7661 10.8406L46.7409 11.0643C47.3056 11.1948 47.7264 11.3959 48.0034 11.6675C48.2803 11.9392 48.4188 12.2921 48.4188 12.7262C48.4188 13.0938 48.3123 13.4213 48.0992 13.709C47.8888 13.994 47.5945 14.2177 47.2163 14.3801C46.8408 14.5426 46.4053 14.6238 45.91 14.6238C45.2228 14.6238 44.6622 14.4774 44.228 14.1844C43.7939 13.8888 43.5276 13.4693 43.429 12.926L44.5836 12.7502C44.6555 13.0511 44.8033 13.2789 45.0271 13.4333C45.2508 13.5851 45.5424 13.661 45.902 13.661C46.2935 13.661 46.6064 13.5798 46.8408 13.4173C47.0752 13.2522 47.1924 13.0511 47.1924 12.8141C47.1924 12.6223 47.1205 12.4612 46.9766 12.3307C46.8355 12.2002 46.6184 12.1017 46.3254 12.0351L45.2867 11.8074C44.7141 11.6768 44.2906 11.4691 44.0163 11.1841C43.7447 10.8991 43.6088 10.5383 43.6088 10.1015C43.6088 9.73926 43.71 9.42232 43.9124 9.15066C44.1149 8.87899 44.3945 8.66726 44.7514 8.51545C45.1083 8.36097 45.5171 8.28374 45.9779 8.28374C46.641 8.28374 47.1631 8.42756 47.5439 8.7152C47.9248 9.00018 48.1765 9.38237 48.299 9.86177ZM52.5966 8.36364V9.32244H49.2448V8.36364H52.5966ZM50.1437 6.89347H51.3382V12.6982C51.3382 12.93 51.3728 13.1044 51.4421 13.2216C51.5113 13.3361 51.6005 13.4147 51.7097 13.4573C51.8216 13.4972 51.9428 13.5172 52.0733 13.5172C52.1692 13.5172 52.2531 13.5106 52.325 13.4972C52.3969 13.4839 52.4528 13.4733 52.4928 13.4653L52.7085 14.4521C52.6392 14.4787 52.5407 14.5053 52.4129 14.532C52.285 14.5613 52.1252 14.5772 51.9335 14.5799C51.6192 14.5852 51.3262 14.5293 51.0546 14.4121C50.7829 14.2949 50.5632 14.1138 50.3954 13.8688C50.2276 13.6238 50.1437 13.3161 50.1437 12.9459V6.89347Z" fill="white"/>
</g>
</g>
<defs>
<clipPath id="clip0_1_4">
<rect width="65" height="20" fill="white" transform="translate(0 0.5)"/>
</clipPath>
<clipPath id="clip1_1_4">
<rect width="65" height="20" fill="white" transform="translate(0 0.5)"/>
</clipPath>
<clipPath id="clip2_1_4">
<rect width="14" height="14" fill="white" transform="translate(12 3.5)"/>
</clipPath>
<clipPath id="clip3_1_4">
<rect width="14" height="14" fill="white" transform="translate(12 3.5)"/>
</clipPath>
</defs>
</svg>
